<svg width="32" height="32" viewBox="0 0 32 32" fill="none" xmlns="http://www.w3.org/2000/svg">
<path d="M15.9993 2.66602C23.3593 2.66602 29.3327 8.63935 29.3327 15.9993C29.3327 23.3593 23.3593 29.3327 15.9993 29.3327C8.63935 29.3327 2.66602 23.3593 2.66602 15.9993C2.66602 8.63935 8.63935 2.66602 15.9993 2.66602ZM15.9993 26.666C21.902 26.666 26.666 21.902 26.666 15.9993C26.666 10.0967 21.902 5.33268 15.9993 5.33268C14.5981 5.33093 13.2102 5.60563 11.9153 6.14106C10.6204 6.67649 9.4438 7.46212 8.45296 8.45296C7.46212 9.4438 6.67649 10.6204 6.14106 11.9153C5.60563 13.2102 5.33093 14.5981 5.33268 15.9993C5.33268 21.902 10.0967 26.666 15.9993 26.666ZM15.9993 23.9993C11.5727 23.9993 7.99935 20.426 7.99935 15.9993C7.99935 11.5727 11.5727 7.99935 15.9993 7.99935C20.426 7.99935 23.9993 11.5727 23.9993 15.9993C23.9993 20.426 20.426 23.9993 15.9993 23.9993ZM15.9993 13.3327C14.5327 13.3327 13.3327 14.5327 13.3327 15.9993C13.3327 17.466 14.5327 18.666 15.9993 18.666C17.466 18.666 18.666 17.466 18.666 15.9993C18.666 14.5327 17.466 13.3327 15.9993 13.3327Z" fill="#1355FF"/>
</svg>
